<mxfile host="app.diagrams.net" modified="2021-10-21T06:54:31.967Z" agent="5.0 (Windows NT 10.0; Win64; x64) AppleWebKit/537.36 (KHTML, like Gecko) Chrome/94.0.4606.81 Safari/537.36 Edg/94.0.992.50" etag="UC1hRoLMTCFOEIl8NV-Y" version="15.5.6" type="github">
  <diagram id="C5RBs43oDa-KdzZeNtuy" name="Page-1">
    <mxGraphModel dx="1185" dy="635" grid="1" gridSize="10" guides="1" tooltips="1" connect="1" arrows="1" fold="1" page="1" pageScale="1" pageWidth="827" pageHeight="1169" math="0" shadow="0">
      <root>
        <mxCell id="WIyWlLk6GJQsqaUBKTNV-0" />
        <mxCell id="WIyWlLk6GJQsqaUBKTNV-1" parent="WIyWlLk6GJQsqaUBKTNV-0" />
        <mxCell id="LaizTbFy-LAUrdLneM8d-0" value="&lt;font style=&quot;font-size: 18px&quot;&gt;根据种子点生成神经纤维束流程&lt;/font&gt;" style="text;html=1;align=center;verticalAlign=middle;resizable=0;points=[];autosize=1;strokeColor=none;fillColor=none;" vertex="1" parent="WIyWlLk6GJQsqaUBKTNV-1">
          <mxGeometry x="225" y="40" width="270" height="20" as="geometry" />
        </mxCell>
        <mxCell id="LaizTbFy-LAUrdLneM8d-5" value="" style="edgeStyle=orthogonalEdgeStyle;rounded=0;orthogonalLoop=1;jettySize=auto;html=1;fontSize=12;" edge="1" parent="WIyWlLk6GJQsqaUBKTNV-1" source="LaizTbFy-LAUrdLneM8d-1" target="LaizTbFy-LAUrdLneM8d-4">
          <mxGeometry relative="1" as="geometry" />
        </mxCell>
        <mxCell id="LaizTbFy-LAUrdLneM8d-1" value="&lt;font style=&quot;font-size: 12px&quot;&gt;qSlicerTractographyInteractiveSeedingModuleWidget::UpdateOnce&lt;/font&gt;" style="text;html=1;align=center;verticalAlign=middle;resizable=0;points=[];autosize=1;strokeColor=#d79b00;fillColor=#ffe6cc;fontSize=18;" vertex="1" parent="WIyWlLk6GJQsqaUBKTNV-1">
          <mxGeometry x="160" y="180" width="370" height="30" as="geometry" />
        </mxCell>
        <mxCell id="LaizTbFy-LAUrdLneM8d-3" value="" style="edgeStyle=orthogonalEdgeStyle;rounded=0;orthogonalLoop=1;jettySize=auto;html=1;fontSize=12;" edge="1" parent="WIyWlLk6GJQsqaUBKTNV-1" source="LaizTbFy-LAUrdLneM8d-2" target="LaizTbFy-LAUrdLneM8d-1">
          <mxGeometry relative="1" as="geometry" />
        </mxCell>
        <mxCell id="LaizTbFy-LAUrdLneM8d-2" value="qSlicerTractographyInteractiveSeedingModuleWidget::clickEnableInteractiveSeeding" style="text;html=1;align=center;verticalAlign=middle;resizable=0;points=[];autosize=1;strokeColor=#d79b00;fillColor=#ffe6cc;fontSize=12;" vertex="1" parent="WIyWlLk6GJQsqaUBKTNV-1">
          <mxGeometry x="110" y="80" width="470" height="20" as="geometry" />
        </mxCell>
        <mxCell id="LaizTbFy-LAUrdLneM8d-7" value="" style="edgeStyle=orthogonalEdgeStyle;rounded=0;orthogonalLoop=1;jettySize=auto;html=1;fontSize=12;" edge="1" parent="WIyWlLk6GJQsqaUBKTNV-1" source="LaizTbFy-LAUrdLneM8d-4" target="LaizTbFy-LAUrdLneM8d-6">
          <mxGeometry relative="1" as="geometry" />
        </mxCell>
        <mxCell id="LaizTbFy-LAUrdLneM8d-4" value="&lt;font style=&quot;font-size: 12px&quot;&gt;vtkSlicerTractographyInteractiveSeedingLogic::UpdateOnce&lt;/font&gt;" style="text;html=1;align=center;verticalAlign=middle;resizable=0;points=[];autosize=1;strokeColor=#d79b00;fillColor=#ffe6cc;fontSize=12;" vertex="1" parent="WIyWlLk6GJQsqaUBKTNV-1">
          <mxGeometry x="180" y="295" width="330" height="20" as="geometry" />
        </mxCell>
        <mxCell id="LaizTbFy-LAUrdLneM8d-15" style="edgeStyle=none;rounded=0;orthogonalLoop=1;jettySize=auto;html=1;fontSize=12;" edge="1" parent="WIyWlLk6GJQsqaUBKTNV-1" source="LaizTbFy-LAUrdLneM8d-6" target="LaizTbFy-LAUrdLneM8d-10">
          <mxGeometry relative="1" as="geometry" />
        </mxCell>
        <mxCell id="LaizTbFy-LAUrdLneM8d-16" style="edgeStyle=none;rounded=0;orthogonalLoop=1;jettySize=auto;html=1;fontSize=12;" edge="1" parent="WIyWlLk6GJQsqaUBKTNV-1" source="LaizTbFy-LAUrdLneM8d-6" target="LaizTbFy-LAUrdLneM8d-8">
          <mxGeometry relative="1" as="geometry" />
        </mxCell>
        <mxCell id="LaizTbFy-LAUrdLneM8d-6" value="&lt;font style=&quot;font-size: 12px&quot;&gt;vtkSlicerTractographyInteractiveSeedingLogic::CreateTracts(...)&lt;/font&gt;" style="text;html=1;align=center;verticalAlign=middle;resizable=0;points=[];autosize=1;strokeColor=#d79b00;fillColor=#ffe6cc;fontSize=12;" vertex="1" parent="WIyWlLk6GJQsqaUBKTNV-1">
          <mxGeometry x="170" y="395" width="350" height="20" as="geometry" />
        </mxCell>
        <mxCell id="LaizTbFy-LAUrdLneM8d-8" value="&lt;font style=&quot;font-size: 12px&quot;&gt;CreateTractsForOneSeed&lt;/font&gt;" style="text;html=1;align=center;verticalAlign=middle;resizable=0;points=[];autosize=1;strokeColor=#d79b00;fillColor=#ffe6cc;fontSize=12;" vertex="1" parent="WIyWlLk6GJQsqaUBKTNV-1">
          <mxGeometry x="380" y="495" width="150" height="20" as="geometry" />
        </mxCell>
        <mxCell id="LaizTbFy-LAUrdLneM8d-10" value="&lt;font style=&quot;font-size: 12px&quot;&gt;CreateTractsForLabelMap&lt;/font&gt;" style="text;html=1;align=center;verticalAlign=middle;resizable=0;points=[];autosize=1;strokeColor=#d79b00;fillColor=#ffe6cc;fontSize=12;" vertex="1" parent="WIyWlLk6GJQsqaUBKTNV-1">
          <mxGeometry x="140" y="495" width="160" height="20" as="geometry" />
        </mxCell>
      </root>
    </mxGraphModel>
  </diagram>
</mxfile>
